<?xml version="1.0" encoding="UTF-8" standalone="no"?>
<!DOCTYPE svg PUBLIC "-//W3C//DTD SVG 1.1//EN" "http://www.w3.org/Graphics/SVG/1.1/DTD/svg11.dtd">
<svg width="100%" height="100%" viewBox="0 0 1600 900" version="1.1" xmlns="http://www.w3.org/2000/svg" xmlns:xlink="http://www.w3.org/1999/xlink" xml:space="preserve" xmlns:serif="http://www.serif.com/" style="fill-rule:evenodd;clip-rule:evenodd;stroke-linejoin:round;stroke-miterlimit:1.41421;">
    <g id="path3035" transform="matrix(1.07272,0,0,1.07272,8.65143,20.0054)">
        <path d="M334.46,49.002C316.182,61.279 295.981,76.482 279.7,93.439C250.813,123.525 222.164,157.443 197.541,191.38C180.907,214.306 159.326,249.095 147.535,274.685C131.844,308.741 122.55,332.6 113.938,370.017C101.806,422.73 103.479,476.827 115.801,527.827C133.93,602.858 191.951,665.637 249.931,716.597C295.289,756.46 356.271,782.539 409.851,801.695L415.387,787.065C362.297,768.095 306.027,742.755 262.557,704.505C206.637,655.295 154.987,595.285 132.707,523.775C119.137,480.245 115.987,432.485 123.107,386.235C129.345,345.719 145.025,305.114 160.3,268.195C172.858,237.846 187.5,214.204 205.36,189.303C228.005,157.729 252.889,126.938 279.341,98.823C296.464,80.624 319.364,64.194 337.756,51.841L334.46,49.002Z" style="fill:white;fill-rule:nonzero;"/>
    </g>
    <g id="path3809" transform="matrix(1.07272,0,0,1.07272,8.65143,20.0054)">
        <path d="M311.24,756.98C311.24,756.98 273.606,745.082 243.74,748.587C196.325,754.151 191.954,783.587 191.954,783.587C191.954,783.587 210.976,795.396 251.775,790.909C299.571,785.651 311.239,756.98 311.239,756.98L311.24,756.98Z" style="fill:white;fill-rule:nonzero;"/>
    </g>
    <g id="path3811" transform="matrix(1.07272,0,0,1.07272,8.65143,20.0054)">
        <path d="M247.15,713.02C247.15,713.02 215.434,697.976 185.364,698.199C133.306,698.585 130.185,726.235 130.185,726.235C130.185,726.235 149.028,739.83 190.721,739.271C238.801,738.626 247.15,713.021 247.15,713.021L247.15,713.02Z" style="fill:white;fill-rule:nonzero;"/>
    </g>
    <g id="path3813" transform="matrix(1.07272,0,0,1.07272,8.65143,20.0054)">
        <path d="M199.74,666.79C199.74,666.79 169.583,640.36 140.414,633.051C89.916,620.398 73.19,649.781 73.19,649.781C73.19,649.781 91.961,672.301 132.467,682.192C179.178,693.598 199.74,666.79 199.74,666.79Z" style="fill:white;fill-rule:nonzero;"/>
    </g>
    <g id="path3815" transform="matrix(1.07272,0,0,1.07272,8.65143,20.0054)">
        <path d="M146.2,595.58C146.2,595.58 120.41,568.395 85.106,557.548C39.033,543.392 17.377,571.184 16.745,571.879C16.745,571.879 35.624,595.641 75.012,606.058C127.844,620.031 146.2,595.58 146.2,595.58Z" style="fill:white;fill-rule:nonzero;"/>
    </g>
    <g id="path3817" transform="matrix(1.07272,0,0,1.07272,8.65143,20.0054)">
        <path d="M120.7,538.91C120.7,538.91 96.681,502.334 60.856,485.07C26.055,468.29 0.631,482.58 0,483.14C0,483.14 17.877,515.81 50.767,531.465C95.454,552.736 120.705,538.906 120.705,538.906L120.7,538.91Z" style="fill:white;fill-rule:nonzero;"/>
    </g>
    <g id="path3819" transform="matrix(1.07272,0,0,1.07272,8.65143,20.0054)">
        <path d="M112.96,489.18C100.14,477.12 99.185,444.34 80.861,417.74C55.298,380.63 13.131,383.32 12.5,383.67C12.5,383.67 17.014,429.904 48.981,457.848C82.954,487.545 112.959,489.183 112.959,489.183L112.96,489.18Z" style="fill:white;fill-rule:nonzero;"/>
    </g>
    <g id="path3821" transform="matrix(1.07272,0,0,1.07272,8.65143,20.0054)">
        <path d="M109.42,411.25C109.42,411.25 110.665,371.065 100.068,340.549C85.284,297.98 44.93,289.623 44.228,289.79C44.228,289.79 37.684,335.309 61.076,370.742C85.938,408.399 109.421,411.249 109.421,411.249L109.42,411.25Z" style="fill:white;fill-rule:nonzero;"/>
    </g>
    <g id="path3823" transform="matrix(1.07272,0,0,1.07272,8.65143,20.0054)">
        <path d="M126.51,335.94C126.51,335.94 134.56,302.205 130.482,270.16C124.335,221.863 86.752,211.639 86.034,211.709C86.034,211.709 73.15,256.442 91.479,294.74C110.958,335.442 126.51,335.94 126.51,335.94L126.51,335.94Z" style="fill:white;fill-rule:nonzero;"/>
    </g>
    <g id="path3830" transform="matrix(1.07272,0,0,1.07272,8.65143,20.0054)">
        <path d="M159.62,255.08C159.62,255.08 172.709,224.564 171.032,192.305C168.704,147.534 138.367,128.62 137.647,128.594C137.647,128.594 108.396,154.968 125.196,211.739C135.387,246.176 159.621,255.081 159.621,255.081L159.62,255.08Z" style="fill:white;fill-rule:nonzero;"/>
    </g>
    <g id="path3832" transform="matrix(1.07272,0,0,1.07272,8.65143,20.0054)">
        <path d="M201.74,188.6C201.74,188.6 221.191,158.638 226.572,126.786C231.624,96.883 219.492,64.305 216.784,61.311C216.784,61.311 185.134,75.221 186.319,128.605C187.116,164.51 201.741,188.6 201.741,188.6L201.74,188.6Z" style="fill:white;fill-rule:nonzero;"/>
    </g>
    <g id="path3834" transform="matrix(1.07272,0,0,1.07272,8.65143,20.0054)">
        <path d="M253.49,124.45C253.49,124.45 276.682,99.753 282.723,65.984C287.723,38 282.683,7.59 277.413,0C277.413,0 247.163,18.795 244.965,66.327C243.306,102.202 251.091,119.277 253.49,124.454L253.49,124.45Z" style="fill:white;fill-rule:nonzero;"/>
    </g>
    <g id="path3836" transform="matrix(1.07272,0,0,1.07272,8.65143,20.0054)">
        <path d="M291.03,85.107C291.03,85.107 335.229,86.704 357.196,73.95C381.785,59.674 405.915,28.687 407.819,19.641C407.819,19.641 369.107,2.666 333.013,33.673C305.771,57.075 293.151,79.81 291.03,85.107Z" style="fill:white;fill-rule:nonzero;"/>
    </g>
    <g id="path3838" transform="matrix(1.07272,0,0,1.07272,8.65143,20.0054)">
        <path d="M242.33,138.43C242.33,138.43 263.471,113.678 299.799,107.283C327.801,102.354 349.328,106.905 363.149,114.958C363.149,114.958 341.827,142.276 300.959,146.042C265.197,149.337 247.583,140.657 242.329,138.43L242.33,138.43Z" style="fill:white;fill-rule:nonzero;"/>
    </g>
    <g id="path3840" transform="matrix(1.07272,0,0,1.07272,8.65143,20.0054)">
        <path d="M198.64,195.5C198.64,195.5 218.77,171.758 255.099,165.364C283.101,160.435 296.547,165.491 310.368,173.544C310.368,173.544 293.339,199.6 252.471,203.365C216.709,206.66 203.893,197.727 198.639,195.5L198.64,195.5Z" style="fill:white;fill-rule:nonzero;"/>
    </g>
    <g id="path3842" transform="matrix(1.07272,0,0,1.07272,8.65143,20.0054)">
        <path d="M156.23,269.95C156.23,269.95 175.035,240.688 209.038,226.388C243.881,211.734 261.777,218.731 276.763,224.325C271.984,231.494 252.426,261.375 220.717,270.345C186.16,280.122 161.785,271.254 156.23,269.95L156.23,269.95Z" style="fill:white;fill-rule:nonzero;"/>
    </g>
    <g id="path3844" transform="matrix(1.07272,0,0,1.07272,8.65143,20.0054)">
        <path d="M131.06,336.07C131.06,336.07 147.724,305.538 180.616,288.842C214.322,271.733 232.672,277.432 248.02,281.94C243.766,289.432 226.396,320.636 195.41,331.852C161.64,344.075 136.694,336.974 131.06,336.07L131.06,336.07Z" style="fill:white;fill-rule:nonzero;"/>
    </g>
    <g id="path3846" transform="matrix(1.07272,0,0,1.07272,8.65143,20.0054)">
        <path d="M117.84,414.65C132.261,396.161 140.101,376.284 162.289,356.501C189.625,332.128 213.081,339.898 229,341.472C221.164,356.191 209.397,379.475 185.08,397.018C155.954,418.029 123.544,414.491 117.84,414.651L117.84,414.65Z" style="fill:white;fill-rule:nonzero;"/>
    </g>
    <g id="path3848" transform="matrix(1.07272,0,0,1.07272,8.65143,20.0054)">
        <path d="M119.63,487.05C131.892,467.064 137.711,451.485 157.546,429.343C181.983,402.065 205.151,406.908 221.146,406.691C215.006,422.194 204.656,445.386 182.454,465.54C155.862,489.678 125.279,486.253 119.63,487.05Z" style="fill:white;fill-rule:nonzero;"/>
    </g>
    <g id="path3850" transform="matrix(1.07272,0,0,1.07272,8.65143,20.0054)">
        <path d="M135.4,544.78C153.848,516.299 151.52,509.853 169.576,486.238C188.968,460.876 213.461,461.573 229.387,460.073C224.51,476.019 217.222,497.59 196.55,519.31C174.505,542.473 151.575,539.491 135.401,544.78L135.4,544.78Z" style="fill:white;fill-rule:nonzero;"/>
    </g>
    <g id="path3852" transform="matrix(1.07272,0,0,1.07272,8.65143,20.0054)">
        <path d="M165.71,601.35C177.34,576.152 175.332,560.417 185.996,542.556C203.438,513.343 220.537,512.082 236.463,510.583C223.76,546.979 226.701,547.147 212.717,569.315C199.11,590.886 180.621,593.789 165.71,601.351L165.71,601.35Z" style="fill:white;fill-rule:nonzero;"/>
    </g>
    <g id="path3854" transform="matrix(1.07272,0,0,1.07272,8.65143,20.0054)">
        <path d="M202.25,648.92C208.878,621.97 202.148,613.723 209.223,594.16C220.794,562.164 237.342,557.676 252.692,553.177C250.927,574.656 253.592,588.283 241.553,611.564C233.052,628.004 215.452,638.662 202.25,648.92Z" style="fill:white;fill-rule:nonzero;"/>
    </g>
    <g id="path3856" transform="matrix(1.07272,0,0,1.07272,8.65143,20.0054)">
        <path d="M275.9,596.01C275.9,596.01 289.193,621.674 284.777,651.418C278.521,693.562 256,699.876 256,699.876C256,699.876 243.173,680.721 244.477,641.854C245.87,600.338 275.9,596.009 275.9,596.009L275.9,596.01Z" style="fill:white;fill-rule:nonzero;"/>
    </g>
    <g id="path3858" transform="matrix(1.07272,0,0,1.07272,8.65143,20.0054)">
        <path d="M323.88,638.94C323.88,638.94 337.183,664.924 334.273,694.854C330.543,733.21 309.537,742.807 309.537,742.807C309.537,742.807 296.305,721.395 295.741,689.079C294.881,639.733 323.881,638.941 323.881,638.941L323.88,638.94Z" style="fill:white;fill-rule:nonzero;"/>
    </g>
    <g id="path3862" transform="matrix(1.07272,0,0,1.07272,8.65143,20.0054)">
        <path d="M1140.9,49.002C1159.18,61.279 1179.38,76.482 1195.66,93.439C1224.55,123.525 1253.2,157.443 1277.82,191.38C1294.45,214.306 1316.03,249.095 1327.83,274.685C1343.52,308.741 1352.81,332.6 1361.42,370.017C1373.55,422.73 1371.88,476.827 1359.56,527.827C1341.43,602.858 1283.41,665.637 1225.43,716.597C1180.07,756.46 1119.09,782.539 1065.51,801.695L1060.01,787.075C1113.11,768.093 1169.38,742.756 1212.85,704.503C1268.77,655.3 1320.41,595.293 1342.7,523.773C1356.27,480.242 1359.41,432.478 1352.3,386.233C1346.06,345.717 1330.38,305.112 1315.1,268.193C1302.55,237.844 1287.9,214.202 1270.04,189.301C1247.4,157.727 1222.51,126.936 1196.06,98.821C1178.94,80.622 1156.04,64.192 1137.65,51.839L1140.9,49.002Z" style="fill:white;fill-rule:nonzero;"/>
    </g>
    <g id="path3864" transform="matrix(1.07272,0,0,1.07272,8.65143,20.0054)">
        <path d="M1164.2,756.98C1164.2,756.98 1201.83,745.082 1231.7,748.587C1279.12,754.151 1283.49,783.587 1283.49,783.587C1283.49,783.587 1264.46,795.396 1223.66,790.909C1175.87,785.651 1164.2,756.98 1164.2,756.98L1164.2,756.98Z" style="fill:white;fill-rule:nonzero;"/>
    </g>
    <g id="path3866" transform="matrix(1.07272,0,0,1.07272,8.65143,20.0054)">
        <path d="M1228.2,713.02C1228.2,713.02 1259.92,697.976 1289.99,698.199C1342.04,698.585 1345.16,726.235 1345.16,726.235C1345.16,726.235 1326.32,739.83 1284.63,739.271C1236.55,738.626 1228.2,713.021 1228.2,713.021L1228.2,713.02Z" style="fill:white;fill-rule:nonzero;"/>
    </g>
    <g id="path3868" transform="matrix(1.07272,0,0,1.07272,8.65143,20.0054)">
        <path d="M1275.7,666.79C1275.7,666.79 1305.86,640.36 1335.03,633.051C1385.52,620.398 1402.25,649.781 1402.25,649.781C1402.25,649.781 1383.48,672.301 1342.97,682.192C1296.26,693.598 1275.7,666.79 1275.7,666.79Z" style="fill:white;fill-rule:nonzero;"/>
    </g>
    <g id="path3870" transform="matrix(1.07272,0,0,1.07272,8.65143,20.0054)">
        <path d="M1329.2,595.58C1329.2,595.58 1354.99,568.395 1390.29,557.548C1436.37,543.392 1458.02,571.184 1458.65,571.879C1458.65,571.879 1439.78,595.641 1400.39,606.058C1347.56,620.031 1329.2,595.58 1329.2,595.58L1329.2,595.58Z" style="fill:white;fill-rule:nonzero;"/>
    </g>
    <g id="path3872" transform="matrix(1.07272,0,0,1.07272,8.65143,20.0054)">
        <path d="M1354.7,538.91C1354.7,538.91 1378.72,502.334 1414.54,485.07C1449.35,468.296 1474.77,482.581 1475.4,483.144C1475.4,483.144 1457.53,515.814 1424.64,531.469C1379.95,552.74 1354.7,538.91 1354.7,538.91L1354.7,538.91Z" style="fill:white;fill-rule:nonzero;"/>
    </g>
    <g id="path3874" transform="matrix(1.07272,0,0,1.07272,8.65143,20.0054)">
        <path d="M1362.4,489.18C1375.22,477.121 1376.17,444.342 1394.5,417.739C1420.06,380.628 1462.23,383.32 1462.86,383.667C1462.86,383.667 1458.34,429.901 1426.38,457.845C1392.4,487.542 1362.4,489.18 1362.4,489.18L1362.4,489.18Z" style="fill:white;fill-rule:nonzero;"/>
    </g>
    <g id="path3876" transform="matrix(1.07272,0,0,1.07272,8.65143,20.0054)">
        <path d="M1366,411.25C1366,411.25 1364.76,371.065 1375.35,340.549C1390.13,297.98 1430.49,289.623 1431.19,289.79C1431.19,289.79 1437.74,335.309 1414.34,370.742C1389.48,408.399 1366,411.249 1366,411.249L1366,411.25Z" style="fill:white;fill-rule:nonzero;"/>
    </g>
    <g id="path3878" transform="matrix(1.07272,0,0,1.07272,8.65143,20.0054)">
        <path d="M1348.9,335.94C1348.9,335.94 1340.85,302.205 1344.93,270.16C1351.08,221.863 1388.66,211.639 1389.38,211.709C1389.38,211.709 1402.26,256.442 1383.93,294.74C1364.45,335.442 1348.9,335.94 1348.9,335.94L1348.9,335.94Z" style="fill:white;fill-rule:nonzero;"/>
    </g>
    <g id="path3880" transform="matrix(1.07272,0,0,1.07272,8.65143,20.0054)">
        <path d="M1315.8,255.08C1315.8,255.08 1302.71,224.564 1304.39,192.305C1306.72,147.534 1337.05,128.62 1337.77,128.594C1337.77,128.594 1367.02,154.968 1350.22,211.739C1340.03,246.176 1315.8,255.081 1315.8,255.081L1315.8,255.08Z" style="fill:white;fill-rule:nonzero;"/>
    </g>
    <g id="path3882" transform="matrix(1.07272,0,0,1.07272,8.65143,20.0054)">
        <path d="M1273.6,188.6C1273.6,188.6 1254.15,158.638 1248.77,126.786C1243.72,96.883 1255.85,64.305 1258.56,61.311C1258.56,61.311 1290.21,75.221 1289.02,128.605C1288.22,164.51 1273.6,188.6 1273.6,188.6L1273.6,188.6Z" style="fill:white;fill-rule:nonzero;"/>
    </g>
    <g id="path3884" transform="matrix(1.07272,0,0,1.07272,8.65143,20.0054)">
        <path d="M1221.9,124.45C1221.9,124.45 1198.71,99.753 1192.67,65.984C1187.66,37.995 1192.7,7.585 1197.98,-0.005C1197.98,-0.005 1228.23,18.79 1230.42,66.322C1232.08,102.197 1224.3,119.272 1221.9,124.449L1221.9,124.45Z" style="fill:white;fill-rule:nonzero;"/>
    </g>
    <g id="path3886" transform="matrix(1.07272,0,0,1.07272,8.65143,20.0054)">
        <path d="M1184.4,85.107C1184.4,85.107 1140.2,86.704 1118.23,73.95C1093.64,59.674 1069.52,28.687 1067.61,19.641C1067.61,19.641 1106.32,2.666 1142.42,33.673C1169.66,57.075 1182.28,79.81 1184.4,85.107Z" style="fill:white;fill-rule:nonzero;"/>
    </g>
    <g id="path3888" transform="matrix(1.07272,0,0,1.07272,8.65143,20.0054)">
        <path d="M1233.1,138.43C1233.1,138.43 1211.96,113.678 1175.63,107.283C1147.63,102.354 1126.1,106.905 1112.28,114.958C1112.28,114.958 1133.6,142.276 1174.47,146.042C1210.23,149.337 1227.85,140.657 1233.1,138.43L1233.1,138.43Z" style="fill:white;fill-rule:nonzero;"/>
    </g>
    <g id="path3890" transform="matrix(1.07272,0,0,1.07272,8.65143,20.0054)">
        <path d="M1276.7,195.5C1276.7,195.5 1256.57,171.758 1220.24,165.364C1192.24,160.435 1178.79,165.491 1164.97,173.544C1164.97,173.544 1182,199.6 1222.87,203.365C1258.63,206.66 1271.45,197.727 1276.7,195.5L1276.7,195.5Z" style="fill:white;fill-rule:nonzero;"/>
    </g>
    <g id="path3892" transform="matrix(1.07272,0,0,1.07272,8.65143,20.0054)">
        <path d="M1319.2,269.95C1319.2,269.95 1300.39,240.688 1266.39,226.388C1231.55,211.734 1213.65,218.731 1198.67,224.325C1203.45,231.494 1223,261.375 1254.71,270.345C1289.27,280.122 1313.64,271.254 1319.2,269.95L1319.2,269.95Z" style="fill:white;fill-rule:nonzero;"/>
    </g>
    <g id="path3894" transform="matrix(1.07272,0,0,1.07272,8.65143,20.0054)">
        <path d="M1344.3,336.07C1344.3,336.07 1327.64,305.538 1294.74,288.842C1261.04,271.733 1242.69,277.432 1227.34,281.94C1231.59,289.432 1248.96,320.636 1279.95,331.852C1313.72,344.075 1338.67,336.974 1344.3,336.07L1344.3,336.07Z" style="fill:white;fill-rule:nonzero;"/>
    </g>
    <g id="path3896" transform="matrix(1.07272,0,0,1.07272,8.65143,20.0054)">
        <path d="M1357.5,414.65C1343.08,396.161 1335.24,376.284 1313.05,356.501C1285.71,332.128 1262.26,339.898 1246.34,341.472C1254.18,356.191 1265.94,379.475 1290.26,397.018C1319.39,418.029 1351.8,414.491 1357.5,414.651L1357.5,414.65Z" style="fill:white;fill-rule:nonzero;"/>
    </g>
    <g id="path3898" transform="matrix(1.07272,0,0,1.07272,8.65143,20.0054)">
        <path d="M1355.8,487.05C1343.54,467.064 1337.72,451.485 1317.88,429.343C1293.45,402.065 1270.28,406.908 1254.28,406.691C1260.42,422.194 1270.77,445.386 1292.98,465.54C1319.57,489.678 1350.15,486.253 1355.8,487.05Z" style="fill:white;fill-rule:nonzero;"/>
    </g>
    <g id="path3900" transform="matrix(1.07272,0,0,1.07272,8.65143,20.0054)">
        <path d="M1340,544.78C1321.55,516.299 1323.88,509.853 1305.82,486.238C1286.43,460.876 1261.94,461.573 1246.01,460.073C1250.89,476.019 1258.18,497.59 1278.85,519.31C1300.89,542.473 1323.83,539.491 1340,544.78L1340,544.78Z" style="fill:white;fill-rule:nonzero;"/>
    </g>
    <g id="path3902" transform="matrix(1.07272,0,0,1.07272,8.65143,20.0054)">
        <path d="M1309.7,601.35C1298.07,576.152 1300.08,560.417 1289.41,542.556C1271.97,513.343 1254.87,512.082 1238.95,510.583C1251.65,546.979 1248.71,547.147 1262.69,569.315C1276.3,590.886 1294.79,593.789 1309.7,601.351L1309.7,601.35Z" style="fill:white;fill-rule:nonzero;"/>
    </g>
    <g id="path3904" transform="matrix(1.07272,0,0,1.07272,8.65143,20.0054)">
        <path d="M1273.1,648.92C1266.47,621.97 1273.2,613.723 1266.13,594.16C1254.56,562.164 1238.01,557.676 1222.66,553.177C1224.42,574.656 1221.76,588.283 1233.8,611.564C1242.3,628.004 1259.9,638.662 1273.1,648.92Z" style="fill:white;fill-rule:nonzero;"/>
    </g>
    <g id="path3906" transform="matrix(1.07272,0,0,1.07272,8.65143,20.0054)">
        <path d="M1199.5,596.01C1199.5,596.01 1186.21,621.674 1190.62,651.418C1196.88,693.562 1219.4,699.876 1219.4,699.876C1219.4,699.876 1232.23,680.721 1230.92,641.854C1229.53,600.338 1199.5,596.009 1199.5,596.009L1199.5,596.01Z" style="fill:white;fill-rule:nonzero;"/>
    </g>
    <g id="path3908" transform="matrix(1.07272,0,0,1.07272,8.65143,20.0054)">
        <path d="M1151.5,638.94C1151.5,638.94 1138.2,664.924 1141.11,694.854C1144.84,733.21 1165.84,742.807 1165.84,742.807C1165.84,742.807 1179.08,721.395 1179.64,689.079C1180.5,639.733 1151.5,638.941 1151.5,638.941L1151.5,638.94Z" style="fill:white;fill-rule:nonzero;"/>
    </g>
    <g transform="matrix(2.29233,0,0,2.29233,-727.745,-358.583)">
        <text x="445.769px" y="369.387px" style="font-family:'FuturaBT-Book', 'Futura Bk BT', sans-serif;font-size:68.571px;fill:white;">CANNES</text>
        <text x="743.914px" y="369.387px" style="font-family:'FuturaBT-Book', 'Futura Bk BT', sans-serif;font-size:68.571px;fill:white;">FILM</text>
    </g>
    <g transform="matrix(1.05916,0,0,1.05916,636.179,586.626)">
        <text x="0px" y="0px" style="font-family:'FuturaBT-Book', 'Futura Bk BT', sans-serif;font-size:76.913px;fill:white;">FESTIV<tspan x="220.749px 268.82px " y="0px 0px ">AL</tspan></text>
    </g>
    <g transform="matrix(1.05916,0,0,1.05916,374.52,264.787)">
        <text x="0px" y="0px" style="font-family:'FuturaBT-Bold', 'Futura Md BT', sans-serif;font-weight:700;font-size:76.913px;fill:white;">OFFICIAL</text>
        <text x="383.19px" y="0px" style="font-family:'FuturaBT-Bold', 'Futura Md BT', sans-serif;font-weight:700;font-size:76.913px;fill:white;">SELECTION</text>
    </g>
    <g transform="matrix(1.05916,0,0,1.05916,658.637,748.54)">
        <text x="0px" y="0px" style="font-family:'FuturaBT-Bold', 'Futura Md BT', sans-serif;font-weight:700;font-size:107.678px;fill:white;">2018</text>
    </g>
</svg>
