<?xml version="1.0" encoding="UTF-8" standalone="no"?><!DOCTYPE svg PUBLIC "-//W3C//DTD SVG 1.1//EN" "http://www.w3.org/Graphics/SVG/1.1/DTD/svg11.dtd"><svg width="100%" height="100%" viewBox="0 0 1600 900" version="1.1" xmlns="http://www.w3.org/2000/svg" xmlns:xlink="http://www.w3.org/1999/xlink" xml:space="preserve" xmlns:serif="http://www.serif.com/" style="fill-rule:evenodd;clip-rule:evenodd;stroke-linejoin:round;stroke-miterlimit:1.41421;"><path id="path3035" d="M367.433,72.571c-19.607,13.17 -41.277,29.478 -58.742,47.668c-30.987,32.274 -61.72,68.659 -88.133,105.064c-17.844,24.593 -40.994,61.912 -53.643,89.362c-16.832,36.533 -26.802,62.127 -36.04,102.265c-13.014,56.546 -11.22,114.577 1.998,169.286c19.448,80.487 81.688,147.832 143.884,202.497c48.657,42.762 114.073,70.738 171.55,91.287l5.938,-15.694c-56.95,-20.35 -117.312,-47.532 -163.943,-88.564c-59.987,-52.789 -115.393,-117.162 -139.293,-193.873c-14.557,-46.695 -17.936,-97.928 -10.298,-147.542c6.691,-43.462 23.512,-87.02 39.897,-126.623c13.472,-32.556 29.178,-57.918 48.337,-84.629c24.292,-33.871 50.986,-66.901 79.361,-97.06c18.368,-19.523 42.934,-37.147 62.663,-50.399l-3.536,-3.045Z" style="fill:#fff;fill-rule:nonzero;"/><path id="path3809" d="M342.525,832.033c0,0 -40.371,-12.763 -72.409,-9.003c-50.863,5.968 -55.552,37.545 -55.552,37.545c0,0 20.406,12.668 64.172,7.854c51.271,-5.64 63.788,-36.396 63.788,-36.396l0.001,0Z" style="fill:#fff;fill-rule:nonzero;"/><path id="path3811" d="M273.774,784.876c0,0 -34.022,-16.138 -66.279,-15.899c-55.844,0.415 -59.192,30.075 -59.192,30.075c0,0 20.214,14.584 64.939,13.984c51.576,-0.692 60.532,-28.159 60.532,-28.159l0,-0.001Z" style="fill:#fff;fill-rule:nonzero;"/><path id="path3813" d="M222.917,735.284c0,0 -32.35,-28.352 -63.641,-36.192c-54.17,-13.573 -72.112,17.946 -72.112,17.946c0,0 20.136,24.158 63.587,34.768c50.108,12.236 72.166,-16.522 72.166,-16.522Z" style="fill:#fff;fill-rule:nonzero;"/><path id="path3815" d="M165.483,658.896c0,0 -27.665,-29.162 -65.537,-40.798c-49.423,-15.185 -72.654,14.628 -73.332,15.373c0,0 20.252,25.49 62.504,36.665c56.674,14.989 76.365,-11.24 76.365,-11.24Z" style="fill:#fff;fill-rule:nonzero;"/><path id="path3817" d="M138.129,598.105c0,0 -25.766,-39.236 -64.196,-57.755c-37.332,-18.001 -64.605,-2.671 -65.282,-2.071c0,0 19.177,35.046 54.459,51.84c47.937,22.817 75.024,7.982 75.024,7.982l-0.005,0.004Z" style="fill:#fff;fill-rule:nonzero;"/><path id="path3819" d="M129.826,544.759c-13.752,-12.937 -14.777,-48.101 -34.433,-76.636c-27.422,-39.808 -72.656,-36.923 -73.333,-36.547c0,0 4.843,49.596 39.134,79.572c36.444,31.857 68.631,33.614 68.631,33.614l0.001,-0.003Z" style="fill:#fff;fill-rule:nonzero;"/><path id="path3821" d="M126.028,461.162c0,-0.001 1.336,-43.108 -10.032,-75.843c-15.859,-45.664 -59.147,-54.629 -59.9,-54.45c0,0 -7.02,48.829 18.073,86.839c26.67,40.395 51.861,43.452 51.861,43.452l-0.002,0.001Z" style="fill:#fff;fill-rule:nonzero;"/><path id="path3823" d="M144.361,380.375c0,0 8.636,-36.188 4.261,-70.564c-6.594,-51.809 -46.91,-62.776 -47.68,-62.701c0,0 -13.821,47.986 5.841,89.069c20.895,43.662 37.578,44.196 37.578,44.196Z" style="fill:#fff;fill-rule:nonzero;"/><path id="path3830" d="M179.879,293.635c0,0 14.041,-32.735 12.242,-67.34c-2.497,-48.027 -35.041,-68.316 -35.813,-68.344c0,0 -31.378,28.292 -13.356,89.191c10.932,36.941 36.928,46.494 36.928,46.494l-0.001,-0.001Z" style="fill:#fff;fill-rule:nonzero;"/><path id="path3832" d="M225.062,222.32c0,0 20.865,-32.14 26.638,-66.309c5.419,-32.077 -7.595,-67.024 -10.5,-70.236c0,0 -33.952,14.921 -32.68,72.188c0.855,38.516 16.543,64.357 16.543,64.357l-0.001,0Z" style="fill:#fff;fill-rule:nonzero;"/><path id="path3834" d="M280.575,153.505c0,0 24.879,-26.493 31.359,-62.717c5.364,-30.019 -0.043,-62.641 -5.696,-70.783c0,0 -32.45,20.162 -34.808,71.151c-1.779,38.484 6.572,56.8 9.145,62.354l0,-0.005Z" style="fill:#fff;fill-rule:nonzero;"/><path id="path3836" d="M320.845,111.301c0,0 47.413,1.714 70.978,-11.968c26.377,-15.314 52.262,-48.554 54.304,-58.258c0,0 -41.527,-18.21 -80.246,15.052c-29.223,25.104 -42.761,49.492 -45.036,55.174Z" style="fill:#fff;fill-rule:nonzero;"/><path id="path3838" d="M268.604,168.502c0,0 22.678,-26.552 61.648,-33.412c30.038,-5.287 53.131,-0.405 67.957,8.233c0,0 -22.873,29.305 -66.713,33.345c-38.362,3.534 -57.257,-5.777 -62.893,-8.166l0.001,0Z" style="fill:#fff;fill-rule:nonzero;"/><path id="path3840" d="M221.737,229.722c0,0 21.593,-25.468 60.564,-32.327c30.039,-5.288 44.462,0.136 59.288,8.775c0,0 -18.267,27.95 -62.107,31.989c-38.362,3.535 -52.11,-6.048 -57.747,-8.437l0.002,0Z" style="fill:#fff;fill-rule:nonzero;"/><path id="path3842" d="M176.242,309.586c0,0 20.173,-31.39 56.649,-46.73c37.376,-15.719 56.574,-8.213 72.65,-2.213c-5.127,7.691 -26.107,39.745 -60.122,49.367c-37.07,10.488 -63.218,0.975 -69.177,-0.424Z" style="fill:#fff;fill-rule:nonzero;"/><path id="path3844" d="M149.242,380.514c0,0 17.876,-32.752 53.16,-50.662c36.157,-18.353 55.841,-12.24 72.305,-7.404c-4.563,8.037 -23.196,41.51 -56.435,53.542c-36.226,13.112 -62.986,5.494 -69.03,4.524Z" style="fill:#fff;fill-rule:nonzero;"/><path id="path3846" d="M135.061,464.809c15.469,-19.834 23.88,-41.156 47.681,-62.378c29.324,-26.145 54.486,-17.81 71.562,-16.122c-8.406,15.79 -21.028,40.767 -47.114,59.586c-31.244,22.538 -66.01,18.743 -72.129,18.915l0,-0.001Z" style="fill:#fff;fill-rule:nonzero;"/><path id="path3848" d="M136.981,542.474c13.154,-21.44 19.396,-38.152 40.673,-61.904c26.214,-29.261 51.067,-24.066 68.225,-24.299c-6.586,16.63 -17.689,41.509 -41.506,63.128c-28.525,25.894 -61.332,22.22 -67.392,23.075Z" style="fill:#fff;fill-rule:nonzero;"/><path id="path3850" d="M153.898,604.402c19.789,-30.552 17.292,-37.467 36.661,-62.799c20.802,-27.207 47.076,-26.459 64.16,-28.068c-5.231,17.106 -13.049,40.245 -35.224,63.545c-23.649,24.847 -48.246,21.648 -65.596,27.322l-0.001,0Z" style="fill:#fff;fill-rule:nonzero;"/><path id="path3852" d="M186.412,665.086c12.476,-27.031 10.322,-43.91 21.761,-63.07c18.71,-31.337 37.053,-32.69 54.137,-34.298c-13.627,39.043 -10.472,39.223 -25.473,63.003c-14.596,23.14 -34.43,26.254 -50.425,34.366l0,-0.001Z" style="fill:#fff;fill-rule:nonzero;"/><path id="path3854" d="M225.609,716.115c7.11,-28.91 -0.109,-37.757 7.48,-58.742c12.413,-34.323 30.164,-39.137 46.63,-43.964c-1.893,23.041 0.966,37.659 -11.949,62.633c-9.119,17.636 -27.999,29.069 -42.161,40.073Z" style="fill:#fff;fill-rule:nonzero;"/><path id="path3856" d="M304.615,659.357c0,0 14.26,27.531 9.522,59.438c-6.711,45.208 -30.869,51.981 -30.869,51.981c0,0 -13.76,-20.548 -12.361,-62.241c1.494,-44.535 33.708,-49.179 33.708,-49.179l0,0.001Z" style="fill:#fff;fill-rule:nonzero;"/><path id="path3858" d="M356.084,705.409c0,0 14.27,27.874 11.149,59.98c-4.001,41.145 -26.535,51.44 -26.535,51.44c0,0 -14.194,-22.969 -14.799,-57.635c-0.923,-52.934 30.186,-53.784 30.186,-53.784l-0.001,-0.001Z" style="fill:#fff;fill-rule:nonzero;"/><path id="path3862" d="M1232.52,72.571c19.609,13.17 41.278,29.478 58.742,47.668c30.991,32.274 61.724,68.659 88.135,105.064c17.839,24.593 40.988,61.912 53.646,89.362c16.831,36.533 26.797,62.127 36.033,102.265c13.012,56.546 11.221,114.577 -1.995,169.286c-19.449,80.487 -81.688,147.832 -143.884,202.497c-48.659,42.762 -114.073,70.738 -171.55,91.287l-5.9,-15.684c56.962,-20.362 117.324,-47.541 163.955,-88.576c59.986,-52.781 115.382,-117.152 139.293,-193.873c14.556,-46.696 17.925,-97.934 10.298,-147.542c-6.694,-43.462 -23.514,-87.02 -39.905,-126.624c-13.463,-32.556 -29.178,-57.917 -48.337,-84.629c-24.287,-33.87 -50.987,-66.9 -79.36,-97.059c-18.365,-19.523 -42.93,-37.148 -62.658,-50.399l3.487,-3.043Z" style="fill:#fff;fill-rule:nonzero;"/><path id="path3864" d="M1257.51,832.033c0,0 40.367,-12.763 72.409,-9.003c50.868,5.968 55.556,37.545 55.556,37.545c0,0 -20.414,12.668 -64.181,7.854c-51.265,-5.64 -63.784,-36.396 -63.784,-36.396Z" style="fill:#fff;fill-rule:nonzero;"/><path id="path3866" d="M1326.17,784.876c0,0 34.027,-16.138 66.284,-15.899c55.835,0.415 59.181,30.075 59.181,30.075c0,0 -20.21,14.584 -64.931,13.984c-51.577,-0.692 -60.534,-28.159 -60.534,-28.159l0,-0.001Z" style="fill:#fff;fill-rule:nonzero;"/><path id="path3868" d="M1377.12,735.284c0,0 32.354,-28.352 63.645,-36.192c54.161,-13.573 72.108,17.946 72.108,17.946c0,0 -20.135,24.158 -63.591,34.768c-50.107,12.236 -72.162,-16.522 -72.162,-16.522Z" style="fill:#fff;fill-rule:nonzero;"/><path id="path3870" d="M1434.51,658.896c0,0 27.665,-29.162 65.532,-40.798c49.431,-15.185 72.656,14.628 73.331,15.373c0,0 -20.242,25.49 -62.496,36.665c-56.672,14.989 -76.367,-11.24 -76.367,-11.24Z" style="fill:#fff;fill-rule:nonzero;"/><path id="path3872" d="M1461.87,598.105c0,0 25.767,-39.236 64.192,-57.755c37.341,-17.994 64.61,-2.67 65.286,-2.066c0,0 -19.17,35.045 -54.452,51.839c-47.94,22.818 -75.026,7.982 -75.026,7.982Z" style="fill:#fff;fill-rule:nonzero;"/><path id="path3874" d="M1470.13,544.759c13.752,-12.936 14.772,-48.099 34.434,-76.637c27.419,-39.809 72.656,-36.922 73.332,-36.549c0,0 -4.849,49.596 -39.133,79.572c-36.451,31.856 -68.633,33.614 -68.633,33.614Z" style="fill:#fff;fill-rule:nonzero;"/><path id="path3876" d="M1473.99,461.162c0,-0.001 -1.33,-43.108 10.03,-75.843c15.855,-45.664 59.15,-54.629 59.901,-54.45c0,0 7.026,48.829 -18.076,86.839c-26.668,40.395 -51.855,43.452 -51.855,43.452l0,0.001Z" style="fill:#fff;fill-rule:nonzero;"/><path id="path3878" d="M1455.64,380.375c0,0 -8.635,-36.188 -4.258,-70.564c6.597,-51.809 46.91,-62.776 47.682,-62.701c0,0 13.817,47.986 -5.846,89.069c-20.897,43.662 -37.578,44.196 -37.578,44.196Z" style="fill:#fff;fill-rule:nonzero;"/><path id="path3880" d="M1420.14,293.635c0,0 -14.041,-32.735 -12.239,-67.34c2.499,-48.027 35.035,-68.316 35.807,-68.344c0,0 31.377,28.292 13.355,89.191c-10.931,36.941 -36.923,46.494 -36.923,46.494l0,-0.001Z" style="fill:#fff;fill-rule:nonzero;"/><path id="path3882" d="M1374.87,222.32c0,0 -20.865,-32.14 -26.636,-66.309c-5.417,-32.077 7.595,-67.024 10.502,-70.236c0,0 33.952,14.921 32.675,72.188c-0.858,38.516 -16.541,64.357 -16.541,64.357Z" style="fill:#fff;fill-rule:nonzero;"/><path id="path3884" d="M1319.41,153.505c0,0 -24.876,-26.493 -31.356,-62.717c-5.374,-30.025 0.033,-62.646 5.697,-70.788c0,0 32.449,20.162 34.799,71.15c1.78,38.484 -6.565,56.801 -9.14,62.354l0,0.001Z" style="fill:#fff;fill-rule:nonzero;"/><path id="path3886" d="M1279.18,111.301c0,0 -47.414,1.714 -70.982,-11.968c-26.378,-15.314 -52.252,-48.554 -54.301,-58.258c0,0 41.525,-18.21 80.25,15.052c29.221,25.104 42.759,49.492 45.033,55.174Z" style="fill:#fff;fill-rule:nonzero;"/><path id="path3888" d="M1331.42,168.502c0,0 -22.677,-26.552 -61.649,-33.412c-30.036,-5.287 -53.132,-0.405 -67.957,8.233c0,0 22.871,29.305 66.713,33.345c38.36,3.534 57.262,-5.777 62.893,-8.166Z" style="fill:#fff;fill-rule:nonzero;"/><path id="path3890" d="M1378.19,229.722c0,0 -21.594,-25.468 -60.566,-32.327c-30.036,-5.288 -44.464,0.136 -59.289,8.775c0,0 18.268,27.95 62.111,31.989c38.36,3.535 52.112,-6.048 57.744,-8.437Z" style="fill:#fff;fill-rule:nonzero;"/><path id="path3892" d="M1423.78,309.586c0,0 -20.178,-31.39 -56.651,-46.73c-37.373,-15.719 -56.575,-8.213 -72.644,-2.213c5.127,7.691 26.099,39.745 60.115,49.367c37.073,10.488 63.215,0.975 69.18,-0.424Z" style="fill:#fff;fill-rule:nonzero;"/><path id="path3894" d="M1450.71,380.514c0,0 -17.872,-32.752 -53.164,-50.662c-36.151,-18.353 -55.835,-12.24 -72.301,-7.404c4.559,8.037 23.192,41.51 56.435,53.542c36.226,13.112 62.991,5.494 69.03,4.524Z" style="fill:#fff;fill-rule:nonzero;"/><path id="path3896" d="M1464.87,464.809c-15.469,-19.834 -23.879,-41.156 -47.683,-62.378c-29.328,-26.145 -54.483,-17.81 -71.561,-16.122c8.41,15.79 21.026,40.767 47.114,59.586c31.248,22.538 66.015,18.743 72.13,18.915l0,-0.001Z" style="fill:#fff;fill-rule:nonzero;"/><path id="path3898" d="M1463.05,542.474c-13.151,-21.44 -19.395,-38.152 -40.677,-61.904c-26.207,-29.261 -51.062,-24.066 -68.225,-24.299c6.586,16.63 17.689,41.509 41.514,63.128c28.524,25.894 61.327,22.22 67.388,23.075Z" style="fill:#fff;fill-rule:nonzero;"/><path id="path3900" d="M1446.1,604.402c-19.791,-30.552 -17.292,-37.467 -36.665,-62.799c-20.8,-27.207 -47.071,-26.459 -64.16,-28.068c5.235,17.106 13.055,40.245 35.228,63.545c23.643,24.847 48.251,21.648 65.597,27.322Z" style="fill:#fff;fill-rule:nonzero;"/><path id="path3902" d="M1413.59,665.086c-12.476,-27.031 -10.32,-43.91 -21.766,-63.07c-18.708,-31.337 -37.051,-32.69 -54.129,-34.298c13.623,39.043 10.47,39.223 25.466,63.003c14.6,23.14 34.435,26.254 50.429,34.366l0,-0.001Z" style="fill:#fff;fill-rule:nonzero;"/><path id="path3904" d="M1374.33,716.115c-7.112,-28.91 0.108,-37.757 -7.477,-58.742c-12.411,-34.323 -30.164,-39.137 -46.631,-43.964c1.888,23.041 -0.965,37.659 11.95,62.633c9.118,17.636 27.998,29.069 42.158,40.073Z" style="fill:#fff;fill-rule:nonzero;"/><path id="path3906" d="M1295.38,659.357c0,0 -14.256,27.531 -9.526,59.438c6.716,45.208 30.873,51.981 30.873,51.981c0,0 13.763,-20.548 12.358,-62.241c-1.491,-44.535 -33.705,-49.179 -33.705,-49.179l0,0.001Z" style="fill:#fff;fill-rule:nonzero;"/><path id="path3908" d="M1243.89,705.409c0,0 -14.268,27.874 -11.146,59.98c4.001,41.145 26.528,51.44 26.528,51.44c0,0 14.203,-22.969 14.804,-57.635c0.922,-52.934 -30.186,-53.784 -30.186,-53.784l0,-0.001Z" style="fill:#fff;fill-rule:nonzero;"/><g><text x="298.795px" y="488.174px" style="font-family:'FuturaBT-Book', 'Futura Bk BT', sans-serif;font-size:155px;fill:#fff;">CUT<tspan x="591.463px 640.885px 710.968px 845.836px " y="488.174px 488.174px 488.174px 488.174px ">:TO </tspan>GENT</text></g><g><text x="539.222px" y="586.626px" style="font-family:'FuturaBT-Book', 'Futura Bk BT', sans-serif;font-size:81.463px;fill:#fff;">FILM FESTIV<tspan x="964.836px 1015.75px " y="586.626px 586.626px ">AL</tspan></text></g><g><text x="377.251px" y="264.787px" style="font-family:'FuturaBT-Bold', 'Futura Md BT', sans-serif;font-weight:700;font-size:81.463px;fill:#fff;">OFFICIAL SELECTION</text></g><text x="658.637px" y="748.54px" style="font-family:'FuturaBT-Bold', 'Futura Md BT', sans-serif;font-weight:700;font-size:114.048px;fill:#fff;">2018</text></svg>